<svg id="Capa_1" enable-background="new 0 0 512 512" height="512" viewBox="0 0 512 512" width="512" xmlns="http://www.w3.org/2000/svg"><g><path d="m373.256 4.393c5.858-5.858 15.355-5.858 21.213 0l113.138 113.137c5.858 5.858 5.858 15.355 0 21.213l-31.82 31.82-134.35-134.35z"/><g><g><path d="m4.394 373.256c-5.858 5.858-5.858 15.355 0 21.213l113.137 113.137c5.858 5.858 15.355 5.858 21.213 0l31.82-31.82-134.35-134.35z"/><path d="m223.597 465.18 21.213-21.213c5.858-5.858 5.858-15.355 0-21.213l-155.563-155.563c-5.858-5.858-15.355-5.858-21.213 0l-21.213 21.213c-5.858 5.858-5.858 15.355 0 21.213l155.562 155.563c5.858 5.858 15.356 5.858 21.214 0z"/></g><g><path d="m507.607 57.427c5.858-5.858 5.858-15.355 0-21.213l-31.819-31.82c-5.858-5.858-15.355-5.858-21.213 0l-8.839 8.839 53.033 53.033z"/><path d="m4.394 454.574c-5.858 5.858-5.858 15.355 0 21.213l31.82 31.819c5.858 5.858 15.355 5.858 21.213 0l8.839-8.839-53.033-53.033z"/><g><path d="m160.175 218.5h191.651v75h-191.651z" transform="matrix(.707 -.707 .707 .707 -106.039 256)"/></g></g><path d="m465.18 223.596-21.213 21.213c-5.858 5.858-15.355 5.858-21.213 0l-155.563-155.562c-5.858-5.858-5.858-15.355 0-21.213l21.213-21.213c5.858-5.858 15.355-5.858 21.213 0l155.563 155.562c5.858 5.858 5.858 15.356 0 21.213z"/></g></g></svg>