<?xml version="1.0"?>
<svg xmlns="http://www.w3.org/2000/svg" id="Capa_1" enable-background="new 0 0 512 512" height="512px" viewBox="0 0 512 512" width="512px" class=""><g><path d="m225.695 67.528h60.609c4.143 0 7.5-3.358 7.5-7.5s-3.357-7.5-7.5-7.5h-60.609c-4.143 0-7.5 3.358-7.5 7.5s3.358 7.5 7.5 7.5z" data-original="#000000" class="active-path" data-old_color="#000000" fill="#FFFFFF"/><path d="m225.695 97.833h60.609c4.143 0 7.5-3.358 7.5-7.5s-3.357-7.5-7.5-7.5h-60.609c-4.143 0-7.5 3.358-7.5 7.5s3.358 7.5 7.5 7.5z" data-original="#000000" class="active-path" data-old_color="#000000" fill="#FFFFFF"/><path d="m225.695 128.138h60.609c4.143 0 7.5-3.358 7.5-7.5s-3.357-7.5-7.5-7.5h-60.609c-4.143 0-7.5 3.358-7.5 7.5s3.358 7.5 7.5 7.5z" data-original="#000000" class="active-path" data-old_color="#000000" fill="#FFFFFF"/><path d="m286.305 372.75h-60.609c-4.143 0-7.5 3.358-7.5 7.5s3.357 7.5 7.5 7.5h60.609c4.143 0 7.5-3.358 7.5-7.5s-3.358-7.5-7.5-7.5z" data-original="#000000" class="active-path" data-old_color="#000000" fill="#FFFFFF"/><path d="m286.305 403.055h-60.609c-4.143 0-7.5 3.358-7.5 7.5s3.357 7.5 7.5 7.5h60.609c4.143 0 7.5-3.358 7.5-7.5s-3.358-7.5-7.5-7.5z" data-original="#000000" class="active-path" data-old_color="#000000" fill="#FFFFFF"/><path d="m205.063 265.512v13.722c0 4.142 3.357 7.5 7.5 7.5s7.5-3.358 7.5-7.5v-13.723c2.811-2.22 4.621-5.651 4.621-9.511 0-6.695-5.427-12.122-12.122-12.122s-12.122 5.427-12.122 12.122c.001 3.86 1.812 7.292 4.623 9.512z" data-original="#000000" class="active-path" data-old_color="#000000" fill="#FFFFFF"/><path d="m504.5 0h-165.667-165.666-165.667c-4.143 0-7.5 3.358-7.5 7.5v497c0 4.142 3.357 7.5 7.5 7.5h497c4.143 0 7.5-3.358 7.5-7.5v-497c0-4.142-3.357-7.5-7.5-7.5zm-338.833 15v146.484c0 4.142 3.357 7.5 7.5 7.5s7.5-3.358 7.5-7.5v-146.484h150.666v253.496c0 4.142 3.357 7.5 7.5 7.5s7.5-3.358 7.5-7.5v-253.496h150.667v421.39h-150.667v-132.886c0-4.142-3.357-7.5-7.5-7.5s-7.5 3.358-7.5 7.5v132.886h-150.666v-239.898c0-4.142-3.357-7.5-7.5-7.5s-7.5 3.358-7.5 7.5v239.898h-150.667v-421.39zm-150.667 436.39h150.667v45.61h-150.667zm165.667 0h150.666v45.61h-150.666zm316.333 45.61h-150.667v-45.61h150.667z" data-original="#000000" class="active-path" data-old_color="#000000" fill="#FFFFFF"/><path d="m391.361 67.528h60.61c4.143 0 7.5-3.358 7.5-7.5s-3.357-7.5-7.5-7.5h-60.61c-4.143 0-7.5 3.358-7.5 7.5s3.358 7.5 7.5 7.5z" data-original="#000000" class="active-path" data-old_color="#000000" fill="#FFFFFF"/><path d="m391.361 97.833h60.61c4.143 0 7.5-3.358 7.5-7.5s-3.357-7.5-7.5-7.5h-60.61c-4.143 0-7.5 3.358-7.5 7.5s3.358 7.5 7.5 7.5z" data-original="#000000" class="active-path" data-old_color="#000000" fill="#FFFFFF"/><path d="m391.361 128.138h60.61c4.143 0 7.5-3.358 7.5-7.5s-3.357-7.5-7.5-7.5h-60.61c-4.143 0-7.5 3.358-7.5 7.5s3.358 7.5 7.5 7.5z" data-original="#000000" class="active-path" data-old_color="#000000" fill="#FFFFFF"/><path d="m451.972 372.75h-60.61c-4.143 0-7.5 3.358-7.5 7.5s3.357 7.5 7.5 7.5h60.61c4.143 0 7.5-3.358 7.5-7.5s-3.358-7.5-7.5-7.5z" data-original="#000000" class="active-path" data-old_color="#000000" fill="#FFFFFF"/><path d="m451.972 403.055h-60.61c-4.143 0-7.5 3.358-7.5 7.5s3.357 7.5 7.5 7.5h60.61c4.143 0 7.5-3.358 7.5-7.5s-3.358-7.5-7.5-7.5z" data-original="#000000" class="active-path" data-old_color="#000000" fill="#FFFFFF"/><path d="m370.729 265.511v13.723c0 4.142 3.357 7.5 7.5 7.5s7.5-3.358 7.5-7.5v-13.722c2.812-2.22 4.622-5.651 4.622-9.511 0-6.695-5.427-12.122-12.122-12.122s-12.122 5.427-12.122 12.122c.001 3.859 1.811 7.29 4.622 9.51z" data-original="#000000" class="active-path" data-old_color="#000000" fill="#FFFFFF"/><path d="m60.028 67.528h60.61c4.143 0 7.5-3.358 7.5-7.5s-3.357-7.5-7.5-7.5h-60.61c-4.143 0-7.5 3.358-7.5 7.5s3.358 7.5 7.5 7.5z" data-original="#000000" class="active-path" data-old_color="#000000" fill="#FFFFFF"/><path d="m60.028 97.833h60.61c4.143 0 7.5-3.358 7.5-7.5s-3.357-7.5-7.5-7.5h-60.61c-4.143 0-7.5 3.358-7.5 7.5s3.358 7.5 7.5 7.5z" data-original="#000000" class="active-path" data-old_color="#000000" fill="#FFFFFF"/><path d="m60.028 128.138h60.61c4.143 0 7.5-3.358 7.5-7.5s-3.357-7.5-7.5-7.5h-60.61c-4.143 0-7.5 3.358-7.5 7.5s3.358 7.5 7.5 7.5z" data-original="#000000" class="active-path" data-old_color="#000000" fill="#FFFFFF"/><path d="m120.639 372.75h-60.61c-4.143 0-7.5 3.358-7.5 7.5s3.357 7.5 7.5 7.5h60.61c4.143 0 7.5-3.358 7.5-7.5s-3.358-7.5-7.5-7.5z" data-original="#000000" class="active-path" data-old_color="#000000" fill="#FFFFFF"/><path d="m120.639 403.055h-60.61c-4.143 0-7.5 3.358-7.5 7.5s3.357 7.5 7.5 7.5h60.61c4.143 0 7.5-3.358 7.5-7.5s-3.358-7.5-7.5-7.5z" data-original="#000000" class="active-path" data-old_color="#000000" fill="#FFFFFF"/><path d="m39.396 265.511v13.722c0 4.142 3.357 7.5 7.5 7.5s7.5-3.358 7.5-7.5v-13.723c2.811-2.22 4.622-5.651 4.622-9.511 0-6.695-5.427-12.122-12.122-12.122s-12.122 5.428-12.122 12.123c0 3.86 1.811 7.292 4.622 9.511z" data-original="#000000" class="active-path" data-old_color="#000000" fill="#FFFFFF"/></g> </svg>
