<?xml version="1.0"?>
<svg xmlns="http://www.w3.org/2000/svg" id="Capa_1" enable-background="new 0 0 512 512" height="512px" viewBox="0 0 512 512" width="512px"><g><g><path d="m496 207.5h-480c-8.284 0-15-6.716-15-15v-15c0-8.284 6.716-15 15-15h480c8.284 0 15 6.716 15 15v15c0 8.284-6.716 15-15 15z" data-original="#000000" class="active-path" data-old_color="#000000" fill="#FFFFFF"/><path d="m386 0h-260c-8.284 0-15 6.716-15 15v117.5h290v-117.5c0-8.284-6.716-15-15-15zm-192 98.75c-17.921 0-32.5-14.579-32.5-32.5s14.579-32.5 32.5-32.5c6.511 0 12.796 1.921 18.176 5.555 3.433 2.318 4.335 6.98 2.017 10.413-2.319 3.433-6.981 4.334-10.413 2.017-2.891-1.952-6.272-2.984-9.779-2.984-9.649 0-17.5 7.851-17.5 17.5s7.851 17.5 17.5 17.5c7.271 0 11.266-4.436 13.005-10h-6.381c-4.143 0-7.5-3.357-7.5-7.5s3.357-7.5 7.5-7.5h14.957c4.143 0 7.5 3.357 7.5 7.5-.001 19.135-11.96 32.499-29.082 32.499zm81.19-53.281-14.63 22.474-.057 23.326c-.01 4.136-3.366 7.481-7.5 7.481-.006 0-.012 0-.019 0-4.142-.01-7.491-3.376-7.481-7.519l.057-23.298-14.745-22.583c-2.265-3.469-1.288-8.116 2.18-10.381 3.469-2.262 8.114-1.289 10.381 2.18l9.681 14.827 9.564-14.691c2.261-3.472 6.906-4.454 10.377-2.193 3.471 2.26 4.452 6.905 2.192 10.377zm69.425 52.757c-4.063.786-7.997-1.889-8.774-5.958l-4.272-22.354-6.446 22.612c-.024.086-.051.171-.078.257-1.151 3.549-4.432 5.947-8.162 5.968-.016 0-.031 0-.048 0-3.712 0-6.994-2.357-8.179-5.88-.029-.089-.058-.178-.084-.268l-6.679-22.638-4.012 22.227c-.735 4.076-4.64 6.784-8.713 6.049-4.076-.735-6.784-4.637-6.049-8.713l8.788-48.69c.758-3.935 4.006-6.804 7.916-7.065 3.889-.269 7.51 2.151 8.755 5.866.029.087.057.175.083.263l8.069 27.349 7.774-27.274c.025-.086.051-.173.079-.258 1.209-3.726 4.793-6.156 8.695-5.953 3.911.222 7.188 3.057 7.969 6.896l9.325 48.792c.78 4.066-1.888 7.994-5.957 8.772z" data-original="#000000" class="active-path" data-old_color="#000000" fill="#FFFFFF"/><g><path d="m201 352h40v160h-40z" data-original="#000000" class="active-path" data-old_color="#000000" fill="#FFFFFF"/><path d="m171 422v-85c0-8.284 6.716-15 15-15h70 70c8.284 0 15 6.716 15 15v85h140v-184.5h-450v184.5zm215-75h20c8.284 0 15 6.716 15 15s-6.716 15-15 15h-20c-8.284 0-15-6.716-15-15s6.716-15 15-15zm-180-86h100c8.284 0 15 6.716 15 15s-6.716 15-15 15h-100c-8.284 0-15-6.716-15-15s6.716-15 15-15zm-100 86h20c8.284 0 15 6.716 15 15s-6.716 15-15 15h-20c-8.284 0-15-6.716-15-15s6.716-15 15-15z" data-original="#000000" class="active-path" data-old_color="#000000" fill="#FFFFFF"/><path d="m271 352h40v160h-40z" data-original="#000000" class="active-path" data-old_color="#000000" fill="#FFFFFF"/><path d="m171 452h-140v30h-16c-8.284 0-15 6.716-15 15s6.716 15 15 15h156z" data-original="#000000" class="active-path" data-old_color="#000000" fill="#FFFFFF"/><path d="m497 482h-16v-30h-140v60h156c8.284 0 15-6.716 15-15s-6.716-15-15-15z" data-original="#000000" class="active-path" data-old_color="#000000" fill="#FFFFFF"/></g></g></g> </svg>
